Flexion_states
version=1
nRows=17
nColumns=41
inDegrees=yes

# SIMM Motion File Header:
name Flexion_states
datacolumns 41
datarows 17
otherdata 1
range 2.14027184 4.61275522
endheader
time	/jointset/ground_thorax/thorax_tilt/value	/jointset/ground_thorax/thorax_tilt/speed	/jointset/ground_thorax/thorax_list/value	/jointset/ground_thorax/thorax_list/speed	/jointset/ground_thorax/thorax_rotation/value	/jointset/ground_thorax/thorax_rotation/speed	/jointset/ground_thorax/thorax_tx/value	/jointset/ground_thorax/thorax_tx/speed	/jointset/ground_thorax/thorax_ty/value	/jointset/ground_thorax/thorax_ty/speed	/jointset/ground_thorax/thorax_tz/value	/jointset/ground_thorax/thorax_tz/speed	/jointset/sternoclavicular/sternoclavicular_r2/value	/jointset/sternoclavicular/sternoclavicular_r2/speed	/jointset/sternoclavicular/sternoclavicular_r3/value	/jointset/sternoclavicular/sternoclavicular_r3/speed	/jointset/unrotscap/unrotscap_r3/value	/jointset/unrotscap/unrotscap_r3/speed	/jointset/unrotscap/unrotscap_r2/value	/jointset/unrotscap/unrotscap_r2/speed	/jointset/acromioclavicular/acromioclavicular_r2/value	/jointset/acromioclavicular/acromioclavicular_r2/speed	/jointset/acromioclavicular/acromioclavicular_r3/value	/jointset/acromioclavicular/acromioclavicular_r3/speed	/jointset/acromioclavicular/acromioclavicular_r1/value	/jointset/acromioclavicular/acromioclavicular_r1/speed	/jointset/unrothum/unrothum_r1/value	/jointset/unrothum/unrothum_r1/speed	/jointset/unrothum/unrothum_r3/value	/jointset/unrothum/unrothum_r3/speed	/jointset/unrothum/unrothum_r2/value	/jointset/unrothum/unrothum_r2/speed	/jointset/shoulder0/elv_angle/value	/jointset/shoulder0/elv_angle/speed	/jointset/shoulder1/shoulder_elv/value	/jointset/shoulder1/shoulder_elv/speed	/jointset/shoulder1/shoulder1_r2/value	/jointset/shoulder1/shoulder1_r2/speed	/jointset/shoulder2/shoulder_rot/value	/jointset/shoulder2/shoulder_rot/speed
      2.14027184	     -0.00000000	     -0.00000000	      0.00000000	     -0.00000000	     -0.00000000	     -0.00000000	      0.00000000	      0.00000000	     -0.00000000	     -0.00000000	     -0.00000000	     -0.00000000	    -11.61519501	     15.63961307	      4.91964452	     -6.62419673	     -4.91964452	      6.62419673	     11.61519501	    -15.63961307	     -2.35182261	      3.16667913	     19.00634941	    -25.59164529	      8.54341548	    -11.50352725	     -8.54341548	     11.50352725	    -19.00634941	     25.59164529	      2.35182261	     -3.16667913	     90.00000000	      0.00000000	     47.99712815	    -64.62711234	    -90.00000000	     -0.00000000	      0.00000000	      0.00000000
      2.19651970	     -0.00000000	     -0.00000000	     -0.00000000	     -0.00000000	     -0.00000000	     -0.00000000	      0.00000000	      0.00000000	     -0.00000000	     -0.00000000	     -0.00000000	     -0.00000000	    -10.75450949	     14.94723319	      4.55509905	     -6.33093752	     -4.55509905	      6.33093752	     10.75450949	    -14.94723319	     -2.17755264	      3.02648737	     17.59797962	    -24.45867989	      7.91034870	    -10.99425565	     -7.91034870	     10.99425565	    -17.59797962	     24.45867989	      2.17755264	     -3.02648737	     90.00000000	      0.00000000	     44.44054272	    -61.76601133	    -90.00000000	     -0.00000000	      0.00000000	      0.00000000
      2.26768135	     -0.00000000	     -0.00000000	     -0.00000000	     -0.00000000	     -0.00000000	     -0.00000000	      0.00000000	      0.00000000	     -0.00000000	     -0.00000000	     -0.00000000	     -0.00000000	     -9.72475224	     13.98498476	      4.11894282	     -5.92337482	     -4.11894282	      5.92337482	      9.72475224	    -13.98498476	     -1.96904935	      2.83165314	     15.91295185	    -22.88411918	      7.15292328	    -10.28648552	     -7.15292328	     10.28648552	    -15.91295185	     22.88411918	      1.96904935	     -2.83165314	     90.00000000	      0.00000000	     40.18530716	    -57.78974053	    -90.00000000	     -0.00000000	      0.00000000	      0.00000000
      2.35544037	     -0.00000000	     -0.00000000	     -0.00000000	     -0.00000000	     -0.00000000	     -0.00000000	      0.00000000	      0.00000000	     -0.00000000	     -0.00000000	     -0.00000000	     -0.00000000	     -8.55107287	     12.75988890	      3.62182802	     -5.40448245	     -3.62182802	      5.40448245	      8.55107287	    -12.75988890	     -1.73140498	      2.58359806	     13.99241929	    -20.87945201	      6.28963769	     -9.38538115	     -6.28963769	      9.38538115	    -13.99241929	     20.87945201	      1.73140498	     -2.58359806	     90.00000000	      0.00000000	     35.33534649	    -52.72731299	    -90.00000000	     -0.00000000	      0.00000000	      0.00000000
      2.47361579	     -0.00000000	     -0.00000000	     -0.00000000	     -0.00000000	     -0.00000000	     -0.00000000	      0.00000000	      0.00000000	     -0.00000000	     -0.00000000	     -0.00000000	     -0.00000000	     -7.14109143	     11.10339764	      3.02462691	     -4.70287148	     -3.02462691	      4.70287148	      7.14109143	    -11.10339764	     -1.44591462	      2.24819485	     11.68521741	    -18.16887749	      5.25254298	     -8.16696914	     -5.25254298	      8.16696914	    -11.68521741	     18.16887749	      1.44591462	     -2.24819485	     90.00000000	      0.00000000	     29.50892175	    -45.88224296	    -90.00000000	     -0.00000000	      0.00000000	      0.00000000
      2.65493364	     -0.00000000	     -0.00000000	     -0.00000000	     -0.00000000	     -0.00000000	     -0.00000000	      0.00000000	      0.00000000	     -0.00000000	     -0.00000000	     -0.00000000	     -0.00000000	     -5.35690740	      8.58181619	      2.26893135	     -3.63484944	     -2.26893135	      3.63484944	      5.35690740	     -8.58181619	     -1.08465643	      1.73762983	      8.76569474	    -14.04272567	      3.94020811	     -6.31225057	     -3.94020811	      6.31225057	     -8.76569474	     14.04272567	      1.08465643	     -1.73762983	     90.00000000	      0.00000000	     22.13619062	    -35.46238623	    -90.00000000	     -0.00000000	      0.00000000	      0.00000000
      2.99448143	     -0.00000000	     -0.00000000	     -0.00000000	     -0.00000000	     -0.00000000	     -0.00000000	      0.00000000	      0.00000000	     -0.00000000	     -0.00000000	     -0.00000000	     -0.00000000	     -3.23271907	      3.95117979	      1.36922614	     -1.67353195	     -1.36922614	      1.67353195	      3.23271907	     -3.95117979	     -0.65455481	      0.80002737	      5.28981115	     -6.46545354	      2.37778721	     -2.90624226	     -2.37778721	      2.90624226	     -5.28981115	      6.46545354	      0.65455481	     -0.80002737	     90.00000000	      0.00000000	     13.35846976	    -16.32734384	    -90.00000000	      0.00000000	      0.00000000	      0.00000000
      3.64412276	     -0.00000000	     -0.00000000	     -0.00000000	     -0.00000000	     -0.00000000	     -0.00000000	      0.00000000	      0.00000000	     -0.00000000	     -0.00000000	     -0.00000000	     -0.00000000	     -3.44823357	     -4.52752723	      1.46050784	      1.91764534	     -1.46050784	     -1.91764534	      3.44823357	      4.52752723	     -0.69819178	     -0.91672511	      5.64246507	      7.40855099	      2.53630628	      3.33016761	     -2.53630628	     -3.33016761	     -5.64246507	     -7.40855099	      0.69819178	      0.91672511	     90.00000000	      0.00000000	     14.24903401	     18.70896739	    -90.00000000	     -0.00000000	      0.00000000	      0.00000000
      3.81813939	     -0.00000000	     -0.00000000	     -0.00000000	     -0.00000000	     -0.00000000	     -0.00000000	      0.00000000	      0.00000000	     -0.00000000	     -0.00000000	     -0.00000000	     -0.00000000	     -4.42635233	     -6.70743956	      1.87479246	      2.84095259	     -1.87479246	     -2.84095259	      4.42635233	      6.70743956	     -0.89623941	     -1.35810962	      7.24299497	     10.97561770	      3.25574964	      4.93357562	     -3.25574964	     -4.93357562	     -7.24299497	    -10.97561770	      0.89623941	      1.35810962	     90.00000000	      0.00000000	     18.29088533	     27.71695490	    -90.00000000	     -0.00000000	      0.00000000	      0.00000000
      3.94409593	     -0.00000000	     -0.00000000	     -0.00000000	     -0.00000000	     -0.00000000	     -0.00000000	      0.00000000	      0.00000000	     -0.00000000	     -0.00000000	     -0.00000000	     -0.00000000	     -5.36919312	     -8.25981772	      2.27413500	      3.49846619	     -2.27413500	     -3.49846619	      5.36919312	      8.25981772	     -1.08714402	     -1.67243219	      8.78579830	     13.51582831	      3.94924472	      6.07540850	     -3.94924472	     -6.07540850	     -8.78579830	    -13.51582831	      1.08714402	      1.67243219	     90.00000000	      0.00000000	     22.18695856	     34.13180141	    -90.00000000	     -0.00000000	      0.00000000	      0.00000000
      4.06951439	     -0.00000000	     -0.00000000	     -0.00000000	     -0.00000000	     -0.00000000	     -0.00000000	      0.00000000	      0.00000000	     -0.00000000	     -0.00000000	     -0.00000000	     -0.00000000	     -6.50090999	     -9.78347435	      2.75347648	      4.14381472	     -2.75347648	     -4.14381472	      6.50090999	      9.78347435	     -1.31629190	     -1.98093929	     10.63766614	     16.00904090	      4.78166531	      7.19611562	     -4.78166531	     -7.19611562	    -10.63766614	    -16.00904090	      1.31629190	      1.98093929	     90.00000000	      0.00000000	     26.86351882	     40.42796284	    -90.00000000	     -0.00000000	      0.00000000	      0.00000000
      4.19589316	     -0.00000000	     -0.00000000	     -0.00000000	     -0.00000000	     -0.00000000	     -0.00000000	      0.00000000	      0.00000000	     -0.00000000	     -0.00000000	     -0.00000000	     -0.00000000	     -7.83310698	    -11.29478303	      3.31773180	      4.78393324	     -3.31773180	     -4.78393324	      7.83310698	     11.29478303	     -1.58603262	     -2.28694620	     12.81758663	     18.48204810	      5.76154661	      8.30774034	     -5.76154661	     -8.30774034	    -12.81758663	    -18.48204810	      1.58603262	      2.28694620	     90.00000000	      0.00000000	     32.36851721	     46.67309917	    -90.00000000	     -0.00000000	      0.00000000	      0.00000000
      4.31265188	     -0.00000000	     -0.00000000	     -0.00000000	     -0.00000000	     -0.00000000	     -0.00000000	      0.00000000	      0.00000000	     -0.00000000	     -0.00000000	     -0.00000000	     -0.00000000	     -9.23206633	    -12.66207306	      3.91026449	      5.36305230	     -3.91026449	     -5.36305230	      9.23206633	     12.66207306	     -1.86929125	     -2.56379249	     15.10675269	     20.71939253	      6.79053415	      9.31343390	     -6.79053415	     -9.31343390	    -15.10675269	    -20.71939253	      1.86929125	      2.56379249	     90.00000000	      0.00000000	     38.14939572	     52.32311146	    -90.00000000	     -0.00000000	      0.00000000	      0.00000000
      4.40610049	     -0.00000000	     -0.00000000	     -0.00000000	     -0.00000000	     -0.00000000	     -0.00000000	      0.00000000	      0.00000000	     -0.00000000	     -0.00000000	     -0.00000000	     -0.00000000	    -10.46481862	    -13.70918005	      4.43239976	      5.80655706	     -4.43239976	     -5.80655706	     10.46481862	     13.70918005	     -2.11889659	     -2.77580872	     17.12394833	     22.43281029	      7.69727011	     10.08362072	     -7.69727011	    -10.08362072	    -17.12394833	    -22.43281029	      2.11889659	      2.77580872	     90.00000000	      0.00000000	     43.24346170	     56.65004084	    -90.00000000	     -0.00000000	      0.00000000	      0.00000000
      4.48274539	     -0.00000000	     -0.00000000	     -0.00000000	     -0.00000000	     -0.00000000	     -0.00000000	      0.00000000	      0.00000000	     -0.00000000	     -0.00000000	     -0.00000000	     -0.00000000	    -11.54562563	    -14.46802765	      4.89017824	      6.12796883	     -4.89017824	     -6.12796883	     11.54562563	     14.46802765	     -2.33773634	     -2.92945874	     18.89251060	     23.67453913	      8.49224457	     10.64178184	     -8.49224457	    -10.64178184	    -18.89251060	    -23.67453913	      2.33773634	      2.92945874	     90.00000000	      0.00000000	     47.70964865	     59.78580441	    -90.00000000	     -0.00000000	      0.00000000	      0.00000000
      4.54775031	     -0.00000000	     -0.00000000	     -0.00000000	     -0.00000000	     -0.00000000	      0.00000000	      0.00000000	      0.00000000	     -0.00000000	     -0.00000000	     -0.00000000	     -0.00000000	    -12.50208964	    -14.91184119	      5.29529093	      6.31594715	     -5.29529093	     -6.31594715	     12.50208964	     14.91184119	     -2.53139935	     -3.01932127	     20.45760608	     24.40076674	      9.19576004	     10.96822350	     -9.19576004	    -10.96822350	    -20.45760608	    -24.40076674	      2.53139935	      3.01932127	     90.00000000	      0.00000000	     51.66201671	     61.61976205	    -90.00000000	     -0.00000000	      0.00000000	      0.00000000
      4.61275522	     -0.00000000	     -0.00000000	     -0.00000000	     -0.00000000	     -0.00000000	      0.00000000	      0.00000000	      0.00000000	     -0.00000000	     -0.00000000	     -0.00000000	     -0.00000000	    -13.47503250	    -14.91869686	      5.70738328	      6.31885089	     -5.70738328	     -6.31885089	     13.47503250	     14.91869686	     -2.72839897	     -3.02070939	     22.04966647	     24.41198491	      9.91139633	     10.97326610	     -9.91139633	    -10.97326610	    -22.04966647	    -24.41198491	      2.72839897	      3.02070939	     90.00000000	      0.00000000	     55.68247981	     61.64809153	    -90.00000000	     -0.00000000	      0.00000000	      0.00000000
